<svg height="464pt" viewBox="-112 0 464 464" width="464pt" xmlns="http://www.w3.org/2000/svg"><path d="m209.488281 320 6-96h-190.96875l6 96h10.007813c4.441406-35.945312 38.375-64 79.472656-64s75.03125 28.054688 79.472656 64zm0 0"/><path d="m84.449219 336h-60.441407c-4.414062 0-8 3.585938-8 8v48c0 4.414062 3.585938 8 8 8h118.039063zm0 0"/><path d="m120.007812 272c-32.175781 0-58.808593 20.910156-63.273437 48h34.832031l27.066406 30.0625 30.0625-30.0625h34.585938c-4.464844-27.089844-31.097656-48-63.273438-48zm0 0"/><path d="m221.640625 176c-11.886719-37.601562-47.082031-64-87.214844-64h-6.632812l14.6875-96h73.527343v-16h-80c-3.75 0-7.039062 2.664062-7.832031 6.320312l-16.6875 105.679688h-5.894531c-40.136719 0-75.328125 26.398438-87.21875 64h-18.375l.0078125 32h239.9999995v-32zm0 0"/><path d="m39.054688 456.496094c.257812 4.214844 3.769531 7.503906 7.984374 7.503906h145.9375c4.214844 0 7.726563-3.289062 7.984376-7.496094l2.535156-40.503906h-166.976563zm0 0"/><path d="m216.007812 336h-60.6875l-25.976562 25.976562 34.222656 38.023438h52.441406c4.417969 0 8-3.585938 8-8v-48c0-4.414062-3.582031-8-8-8zm0 0"/></svg>