<?xml version="1.0" encoding="iso-8859-1"?>
<!-- Generator: Adobe Illustrator 19.0.0, SVG Export Plug-In . SVG Version: 6.00 Build 0)  -->
<svg version="1.1" id="Capa_1" xmlns="http://www.w3.org/2000/svg" xmlns:xlink="http://www.w3.org/1999/xlink" x="0px" y="0px"
	 viewBox="0 0 512 512" style="enable-background:new 0 0 512 512;" xml:space="preserve">
<g>
	<g>
		<path d="M301,30v30H194.482c-2.272,11.153-7.231,21.237-13.865,30H301v30h180V30H301z"/>
	</g>
</g>
<g>
	<g>
		<polygon points="301,150 301,180 241,180 241,210 301,210 301,240 481,240 481,150 		"/>
	</g>
</g>
<g>
	<g>
		<polygon points="301,270 301,300 241,300 241,330 301,330 301,360 481,360 481,270 		"/>
	</g>
</g>
<g>
	<g>
		<polygon points="301,390 301,420 211,420 211,450 301,450 301,480 481,480 481,390 		"/>
	</g>
</g>
<g>
	<g>
		<path d="M151,120H91c-33.091,0-60,26.909-60,60v150c0,12.554,8.042,23.862,20.024,28.11L61,361.655V512h45V360h30v152h45V361.655
			l9.976-3.545C202.958,353.862,211,342.554,211,330V180C211,146.909,184.091,120,151,120z"/>
	</g>
</g>
<g>
	<g>
		<circle cx="121" cy="45" r="45"/>
	</g>
</g>
<g>
</g>
<g>
</g>
<g>
</g>
<g>
</g>
<g>
</g>
<g>
</g>
<g>
</g>
<g>
</g>
<g>
</g>
<g>
</g>
<g>
</g>
<g>
</g>
<g>
</g>
<g>
</g>
<g>
</g>
</svg>
